<?xml version="1.0" standalone="no"?><!DOCTYPE svg PUBLIC "-//W3C//DTD SVG 1.1//EN" "http://www.w3.org/Graphics/SVG/1.1/DTD/svg11.dtd"><svg t="1684378253400" class="icon" viewBox="0 0 1024 1024" version="1.1" xmlns="http://www.w3.org/2000/svg" p-id="935" xmlns:xlink="http://www.w3.org/1999/xlink" width="200" height="200"><path d="M965.4048736 480.35773547L559.70080427 79.82859413c-2.01714133-2.40135893-6.53169493-6.58517973-12.79705814-10.71879146-10.54851307-6.95739093-22.4996384-11.1859648-35.61433066-11.1859648-14.01301867 0-26.25121493 4.25040427-36.52902934 11.29620906-6.215152 4.26350293-10.5004864 8.61541973-12.92585813 11.8583456L57.21980373 480.40685333c-15.63066133 15.39707413-15.63066133 40.41704747 0 55.84905067 15.5073184 15.33922347 36.14262933 8.87083627 53.72384854-8.4473248L138.1685088 500.89371627l374.2375392-362.5276416 399.28480107 392.61120746c21.41575253 14.1047072 40.29152213 18.53630507 53.716208 5.27643947C981.03553387 520.82499307 981.03553387 495.7886464 965.4048736 480.35773547z" fill="#ffffff" p-id="936"></path><path d="M811.740848 458.71603733c-18.55049493 0-33.67250453 14.86768427-33.74345387 33.31885014l0 0.09168853 0 0.0949632 0 373.4865696c0 18.5777824-15.32939947 33.709616-34.26083733 33.709616l-89.7376768 0 0-204.9777824c0-53.1398816-43.52353173-96.1187424-97.221184-96.1187424l-90.95254613 0c-53.68127893 0-97.22009173 42.98759253-97.22009174 96.1187424l0 204.9777824L278.86628907 899.41772373c-18.93362027 0-34.26083733-15.1318336-34.26083734-33.709616L244.60545173 492.1505888c-0.03602027-18.5122912-15.16676267-33.43346027-33.71944-33.43346027-18.57996587 0-33.69542613 14.896064-33.76855893 33.38979947l0 378.05788267c0 53.16717013 43.52898987 96.1427552 97.221184 96.1427552l150.66996693 0 11.08226987 0 0-11.08445227 0-256.2795328c0-18.57123413 15.32285013-33.6856032 34.26083733-33.6856032l81.92125547 0c18.9401696 0 34.26083733 15.11436907 34.26083733 33.6856032l0 256.2795328 0 11.08445227 11.08445227 0 150.66996693 0c53.6758208 0 97.221184-42.98431787 97.221184-96.1427552L845.50940693 492.077456C845.3631424 473.5553408 830.2727872 458.71603733 811.740848 458.71603733z" fill="#ffffff" p-id="937"></path></svg>