<?xml version="1.0" standalone="no"?><!DOCTYPE svg PUBLIC "-//W3C//DTD SVG 1.1//EN" "http://www.w3.org/Graphics/SVG/1.1/DTD/svg11.dtd"><svg t="1684378305198" class="icon" viewBox="0 0 1024 1024" version="1.1" xmlns="http://www.w3.org/2000/svg" p-id="1629" xmlns:xlink="http://www.w3.org/1999/xlink" width="200" height="200"><path d="M151.37862429 622.96042382v249.66095189h249.66095189v83.2203173H151.37862429a83.2203173 83.2203173 0 0 1-83.2203173-83.2203173v-249.66095189h83.2203173z m804.46306872 0v249.66095189a83.2203173 83.2203173 0 0 1-83.2203173 83.2203173h-249.66095189v-83.2203173h249.66095189v-249.66095189h83.2203173zM498.12994731 256.79102635a221.92084651 221.92084651 0 0 1 165.33103047 369.96979143l83.63641856 83.69189888-58.83676445 58.80902428-91.65330887-91.62556871A221.92084651 221.92084651 0 1 1 498.12994731 256.79102635z m0 83.2203173a138.70052921 138.70052921 0 1 0 0 277.40105841 138.70052921 138.70052921 0 0 0 0-277.40105841zM872.62137571 68.15830699a83.2203173 83.2203173 0 0 1 83.2203173 83.2203173v249.66095189h-83.2203173V151.37862429h-249.66095189V68.15830699h249.66095189zM401.03957618 68.15830699v83.2203173H151.37862429v249.66095189H68.15830699V151.37862429a83.2203173 83.2203173 0 0 1 83.2203173-83.2203173h249.66095189z" p-id="1630" fill="#ffffff"></path></svg>