<?xml version="1.0" standalone="no"?><!DOCTYPE svg PUBLIC "-//W3C//DTD SVG 1.1//EN" "http://www.w3.org/Graphics/SVG/1.1/DTD/svg11.dtd"><svg t="1684378286291" class="icon" viewBox="0 0 1024 1024" version="1.1" xmlns="http://www.w3.org/2000/svg" p-id="1107" xmlns:xlink="http://www.w3.org/1999/xlink" width="200" height="200"><path d="M365.96 200.12l292.02 0 0 16.26c0 45.66 37.26 82.56 83.16 82.56l17.4 0c45.96 0 83.16-36.9 83.16-82.56L841.7 200.12l86.1 0c35.52 0 64.2 28.74 64.2 63.84l0 634.2c0 35.28-28.74 63.78-64.2 63.78L96.26 961.94C60.74 962 32 933.44 32 898.22L32 263.96C32 228.8 60.74 200.12 96.26 200.12l86.04 0 0 16.26c0 45.66 37.2 82.56 83.16 82.56l17.4 0c45.9 0 83.16-36.9 83.16-82.56L366.02 200.12zM908.36 894.56L908.36 344.9 115.64 344.9l0 549.66L908.36 894.56z" fill="#ffffff" p-id="1108"></path><path d="M749.9 225.14m-12.18 0a0.1903125 0.1903125 0 1 0 24.36 0 0.1903125 0.1903125 0 1 0-24.36 0Z" fill="#ffffff" p-id="1109"></path><path d="M749.9 200.12c-13.92 0-25.2 11.28-25.2 25.02 0 13.86 11.28 25.02 25.2 25.02 13.86 0 25.2-11.16 25.2-25.02C775.1 211.34 763.76 200.12 749.9 200.12zM697.64 113.78c0-28.56 23.46-51.78 52.26-51.78 14.4 0 27.42 5.76 36.84 15.18 9.54 9.36 15.36 22.38 15.36 36.6l0 104.58c0 28.68-23.4 51.9-52.2 51.9-14.4 0-27.42-5.88-36.9-15.24s-15.36-22.32-15.36-36.66L697.64 113.78z" fill="#ffffff" p-id="1110"></path><path d="M386 443.78c-10.26 21.6-86.1 81.72-118.86 92.34l0 78.3c22.26-6.66 40.68-13.8 55.44-21.24 14.7-7.2 29.94-16.86 45.66-28.8l0 229.32 75.66 0L443.9 443.78 386 443.78zM646.1 677.06c0 19.98-4.38 35.1-13.14 45.18s-19.8 15.06-33.24 15.06c-8.94 0-17.04-2.22-24.12-6.78l0 63.96c7.86 0.78 16.2 1.14 25.08 1.14 31.8 0 57.96-5.4 78.3-16.26 20.52-10.74 36.24-26.4 47.34-46.92 11.1-20.52 16.62-41.82 16.62-64.02 0-31.56-10.8-57.84-32.34-78.54-21.66-21-49.68-31.32-84.36-31.32-10.2 0-20.64 1.38-31.08 3.84C584.72 564.8 571.4 573.68 571.4 573.68l0.3-51.78 154.74 0L726.44 445.7 507.38 445.7l0 190.62 42.12 6.06c7.68-8.64 14.76-14.52 21.24-17.76C579.38 620 588.38 617.72 597.68 617.72c14.64 0 26.4 4.8 35.16 14.22C641.66 641.54 646.1 656.54 646.1 677.06zM875.9 375.38l0 488.64L148.1 864.02 148.1 375.38 875.9 375.38z" fill="#ffffff" p-id="1111"></path><path d="M274.1 225.14m-12.12 0a0.189375 0.189375 0 1 0 24.24 0 0.189375 0.189375 0 1 0-24.24 0Z" fill="#ffffff" p-id="1112"></path><path d="M326.36 218.36c0 28.68-23.4 51.9-52.26 51.9-14.46 0-27.42-5.88-36.96-15.24C227.72 245.72 221.96 232.76 221.96 218.36L221.96 113.78c0-28.56 23.34-51.78 52.2-51.78 14.46 0 27.48 5.76 36.9 15.18 9.48 9.36 15.3 22.38 15.3 36.6L326.36 218.36zM299.3 225.14c0-13.74-11.28-25.02-25.2-25.02-13.86 0-25.14 11.28-25.14 25.02 0 13.86 11.28 25.02 25.14 25.02C288.02 250.16 299.3 239 299.3 225.14z" fill="#ffffff" p-id="1113"></path></svg>